<?xml version='1.0' encoding='utf-8'?>
<svg xmlns="http://www.w3.org/2000/svg" enable-background="new 0 0 2660.21 1953.974" version="1.1" viewBox="0 0 2660.21 1953.974">
<path d="m2306.1 36.817c2.612-0.047 5.103 1.008 7.323 2.351 1.502 2.939 0.7 7.268 3.872 9.292 4.525 4.152 11.158 3.097 16.681 4.851 1.997-2.584 4.777-4.786 8.275-4.357 3.862 3.909 9.012 6.083 14.022 8.154 2.724 1.259 5.374 2.957 8.499 3.051 5.374 0.476 10.925 2.575 13.733 7.482 6.388 1.238 13.421-2.283 24.798 6.185 7.883 0.286 11.642 7.88 18.762 11.513 0.868 3.163 4.954 3.611 5.439 6.913 3.079 4.506 4.478 9.833 6.782 14.722 2.239 3.405 4.469 6.82 6.484 10.374-0.448 2.454-0.709 4.935-0.737 7.426 1.437 2.762 0.345 5.971 1.53 8.816-0.547 3.729-4.303 16.197-7.744 18.025-0.233 2.071-0.746 4.32-3.06 4.907 4.506 7.576 9.012 15.244 14.862 21.868 4.413 1.427 5.747 6.344 9.553 8.546 3.424 2.155 4.431 6.671 8.032 8.704 3.881 2.258 6.046 6.503 10.029 8.611 1.698 3.685 5.346 5.962 6.876 9.749 2.351 4.021 4.599 8.536 8.882 10.841 3.638 2.183 5.439 6.4 9.246 8.378 1.521 4.17 5.625 6.307 8.751 9.152 4.226 2.967 5.887 8.434 10.403 11.102 3.592 2.118 6.176 5.43 9.199 8.219 7.1 3.778 10.001 11.774 15.758 17.036 1.987 3.284 5.411 5.197 8.248 7.659 3.648 3.228 4.963 8.844 9.805 10.757 3.349 1.399 5.784 4.189 8.658 6.335 28.751 27.164 15.613 20.275 25.479 32.299 3.583 4.515 7.081 9.18 8.984 14.694 3.181 3.228 3.965 7.781 6.064 11.671 1.235 5.447-1.117 20.515-2.258 23.958-1.81 5.523-0.392 11.447-1.772 17.036-1.092 4.068 1.129 7.939 1.446 11.951 0.271 3.461 1.119 7.109-0.233 10.449-2.137 5.374-4.32 11.018-8.723 14.983-2.929 2.883-7.631 3.228-9.936 6.829-2.071 2.92-5.514 4.254-8.984 4.329-0.168 3.536 0.522 7.361-1.25 10.608-6.483 13.677-11.629 16.563-23.678 25.871-1.232 0.998-2.846 1.204-4.292 1.474-0.168 0.448-0.504 1.334-0.672 1.773-0.821-0.205-1.614-0.401-2.37-0.597-0.317 0.896-0.597 1.801-0.849 2.706-0.494 0.336-1.483 0.998-1.978 1.325-0.205 2.202-0.392 4.394-0.625 6.596-1.399-1.176-2.668-2.5-3.844-3.862-0.476 1.101-0.914 2.202-1.316 3.303-0.438-0.271-1.315-0.83-1.754-1.11-0.242 0.597-0.737 1.81-0.989 2.416-2.183-0.252-3.909 0.681-4.851 2.612-0.467-0.784-0.886-1.558-1.278-2.332-3.097 2.08-6.698 4.142-10.552 3.694-1.838 0.317-3.834 1.418-5.42-0.019-2.379 0.541-4.777 0.83-6.979-0.317-0.886 0.429-1.717 0.877-2.528 1.325-2.36-1.745-5.309-1.885-8.07-2.248-0.121-0.606-0.373-1.819-0.494-2.426-2.164 0.7-4.394 1.259-6.615 0.616-0.709-1.306-1.679-2.416-2.65-3.461-1.11 1.791-1.95 3.722-2.51 5.756-0.187 0.037-0.579 0.121-0.774 0.168 0.028-1.185 0.093-2.36 0.205-3.527-6.476-5.139-11.753 3.942-16.662 0.401-4.861 2.248-10.169 0-14.731-1.931-1.829 0.243-3.611 0.532-5.355 0.84-1.437 2.09-3.181 4.002-5.616 4.851-1.101-0.457-2.165-0.905-3.2-1.343-0.392 0.41-1.194 1.241-1.595 1.661-0.616-0.149-1.847-0.448-2.463-0.588-2.724 2.566-6.102 4.208-9.852 4.441-2.855 2.939-7.128 3.321-10.99 3.116-4.721-0.513-8.695 3.088-13.36 2.724-3.9-1.231-6.41 2.948-9.936 3.76-2.164-1.25-4.515 0.177-6.764-0.401-2.231 3.355-2.758 6.272-17.334 4.152-1.745 0.756-3.657 1.222-5.159 2.36-1.633 2.594-2.836 5.439-4.208 8.173-1.008 0.177-1.969 0.373-2.892 0.588-0.429 2.36-1.698 4.376-3.181 6.204-0.09 2.766-1.167 4.814-10.682 12.091 1.726 6.643-0.476 13.295-1.595 19.835-0.243 1.997-1.595 4.114-0.336 6.036 1.595 2.183-1.082 3.573-2.183 5.141-0.448 2.659 0.28 5.607-1.166 8.033-1.549 2.827-3.443 5.532-4.124 8.732-0.746 3.601-3.349 6.493-3.629 10.244-3.816 1.101-4.702 5.635-8.331 7.09-4.385-0.737-8.966-0.252-12.352 2.864-1.847-0.485-3.62-1.092-5.318-1.847-0.177 1.176-0.345 2.351-0.429 3.545 1.885 1.679 3.219 3.825 3.601 6.372-3.163 0.784-6.381 1.287-9.619 1.371-0.933 2.379-1.773 5.113-4.133 6.456-2.062-0.336-4.292-0.616-5.887-2.006-0.019-1.651-0.467-2.985-2.081-3.564-0.476 0.495-1.427 1.502-1.903 1.997-0.075 0.578-0.233 1.726-0.308 2.304-4.17 1.362-8.863 2.118-13.042 0.476-4.357-1.325-10.972-1.25-12.222 4.226-1.343 0.494-2.659 0.97-3.956 1.446-0.131 1.661-0.252 3.368-1.418 4.674 0.868 0.681 1.763 1.371 2.697 2.071-6.27 10.165-5.169 9.195-17.129 7.184 1.903 4.161 2.687 10.039-1.026 13.444-0.103 0.522-0.299 1.558-0.401 2.08-0.317 0.345-0.961 1.045-1.287 1.39 3.734 5.73 3.613 4.394-0.522 10.421 0.504 0.868 1.026 1.754 1.595 2.64-0.644 1.157-1.25 2.323-1.819 3.499-0.317 0.233-0.952 0.69-1.269 0.924-1.549 2.995-4.021 5.579-4.609 9.012 0.56 0.28 1.67 0.821 2.221 1.101 0.541 1.661 1.269 3.303 1.502 5.075-1.231 3.657-4.59 6.353-8.425 6.773 0.97 2.64 0.98 5.486 1.288 8.266 0.7 3.181-3.247 3.993-5.243 5.364-2.136 1.045-1.53 3.853-1.297 5.756 1.325 4.096-0.504 8.275 0.354 12.464-1.679 0.522-3.321 1.054-4.944 1.605-0.868 1.306-1.866 2.519-2.864 3.704 2.677 1.978 3.499 5.019 3.321 8.238-0.261 0.317-0.774 0.97-1.026 1.297-0.485 3.601-2.696 6.633-5.224 9.106-2.416 0.83-4.749 1.81-6.615 3.583 0.634 0.438 1.894 1.315 2.528 1.754-1.539 0.625-3.032 1.278-4.506 1.95 0.69 0.476 2.08 1.437 2.771 1.913-0.69 1.465-1.343 2.939-2.071 4.385-0.074 0.653-0.233 1.969-0.308 2.622-3.172 0.411-6.344 0.084-9.498 0.103-0.541-0.233-1.623-0.709-2.164-0.942-0.635 1.306-0.187 2.482 0.728 3.508-0.411 3.657 0.485 7.818-2.062 10.878 0.336 1.754 1.521 3.657 0.635 5.43-2.351 2.164-5.131 3.993-8.294 4.628-0.886-1.138-1.95-1.707-3.209-1.726-1.16 4.48 3.666 4.848 0.336 14.19 4.704 5.721 6.163 7.169 2.127 13.071 0.672 2.062 1.054 4.208 1.092 6.4-1.073 0.914-2.099 1.857-3.079 2.818 1.194 0.569 2.481 1.092 3.666 1.819 0.569 1.838-0.793 3.219-1.735 4.609-1.969-0.83-3.639-2.09-5.131-3.545-2.538-0.373-5.047-0.84-7.51-1.372-1.082 0.532-2.136 1.073-3.163 1.614-0.961 3.583-1.885 7.324-4.478 10.113 0.634 0.914 1.315 1.838 2.034 2.762-0.737 1.819-1.642 3.555-2.761 5.159 0.653 2.65 0.756 5.392 0.737 8.126-4.73-0.299-9.003 2.015-13.416 3.265 1.054 1.959 2.827 3.368 4.263 5.075 0.84 2.286-1.763 3.06-3.237 3.974-0.616 1.427-1.101 2.911-1.213 4.478-1.521 2.286-3.396 4.329-5.756 5.738-0.69 2.081-1.595 4.086-2.808 5.915 0.233 2.062 0.457 4.142 0.597 6.232 0.485 0.27 1.446 0.821 1.931 1.091-0.271 4.189 0.112 9.022-2.929 12.352 1.176 4.133-0.924 7.902-3.62 10.888-2.174 1.922-0.075 5.253-2.071 7.389-2.799 3.564-0.457 7.995-0.952 12.063 1.763 1.586 3.191 3.937 1.978 6.335-1.735 1.539-3.881 2.51-5.877 3.638 2.323 6.541 5.197 10.059-4.245 12.1-0.728 3.321 3.554 4.198 3.75 7.268 0.672 3.219-3.2 4.077-5.215 5.467 2.64 1.399 4.991 3.387 6.811 5.784 0.541 1.362-0.42 2.687-0.774 3.984-6.242 0.492-5.558-1.936-9.171 5.29 1.381 1.12 2.79 2.211 4.264 3.284 0.709 1.082 1.437 2.155 2.23 3.247-2.599 10.849-5.05 9.088-9.134 9.796-1.166 3.713 1.744 7.109 1.278 10.804-0.784 2.09-3.293 2.342-5.075 3.042-0.793 3.107-0.644 6.325-0.196 9.488-2.519 2.398-5.71-0.28-8.518-0.532-3.443 4.861 0.905 11.662-3.069 16.42-0.504 0.019-1.511 0.065-2.015 0.084-0.97 1.521-1.969 3.014-3.107 4.413 2.36 4.861 1.735 10.281 0.112 15.272-2.342 1.082-4.833 1.017-6.68-0.933 0.103 4.693-0.69 9.469-2.211 13.882-2.23 0.047-4.114-1.064-5.85-2.258-2.071 4.208-5.336 7.547-8.294 11.121-1.885 0.812-3.909 1.521-5.299 3.079-0.082 0.54-0.09 8.494-0.093 9.04 3.398 9.885 0.019 10.256-5.122 10.887-0.998 1.53-1.969 3.069-2.938 4.609-0.657 8.833-2.683 8.586-8.014 9.824-4.332 5.036-1.474 7.433-11.149 1.399-1.185 1.399-2.416 2.743-3.657 4.077-0.765 4.114-3.06 7.715-4.161 11.736-2.08 0.653-3.648-0.868-4.767-2.36-0.933 0.373-1.838 0.775-2.706 1.204-0.495 0.047-1.474 0.14-1.968 0.187-0.607 4.366-2.127 8.509-4.189 12.38-1.847-1.67-3.555-3.443-5.178-5.281-0.364 0.159-1.092 0.466-1.455 0.625-0.112 2.715-2.444 3.993-4.385 5.383-1.185 0.168-2.332 0.345-3.443 0.541-0.028 2.743-2.127 4.683-4.301 6.008-1.875-0.7-3.312-3.135-5.476-2.165-1.829 1.12-3.424 2.575-5.299 3.592-1.315 1.176-2.724 2.295-4.497 2.603-0.457 0.69-0.868 1.399-1.25 2.136-0.812 0.373-1.605 0.765-2.36 1.185-0.933 1.213-1.67 2.65-2.911 3.592-2.752 0.42-5.495 0.718-8.191 1.315-0.466 1.39-0.952 2.78-1.381 4.208 0.317 0.513 0.942 1.539 1.259 2.062 1.642 0.662 6.652 0.504 5.187 3.256-3.181 1.931-6.829 2.873-10.085 4.618 1.325 0.635 2.678 1.26 4.068 1.885-1.912 2.93-4.189 5.588-6.782 7.93-0.103 0.588-0.308 1.763-0.42 2.351-0.439 0.383-1.325 1.148-1.763 1.53-1.549-0.653-3.097-1.418-4.777-1.353-0.14 2.379 1.894 3.984 3.153 5.775-7.291 5.135-6.637 2.063-18.892-3.069 1.185 3.601 0.933 7.548 2.491 11.046 1.959 0.196 3.76 1.026 5.402 2.136 3.948 20.353 3.444 12.113 9e-3 17.418 0.14 0.765 0.438 2.295 0.588 3.069-0.802 2.202-2.416 4.655-4.945 4.879-4.394-1.885-8.9-3.704-12.912-6.316-2.948 1.595-6.139 2.706-9.525 2.556-1.465 6.484 4.926 10.309 7.51 15.468 3.909 5.644 3.191 12.744 3.181 19.247-3.237 0.196-6.465 0.056-9.628-0.541-0.411 0.289-1.213 0.877-1.623 1.166-1.054 4.515-3.471 8.994-2.286 13.742 0.653 3.256 0.504 6.615-0.634 9.759-1.232 0.047-2.444 0.093-3.62 0.177-0.336-0.354-1.008-1.064-1.344-1.418-0.849 0.504-1.67 1.026-2.454 1.567 0.047 3.452-1.176 6.717-2.006 10.029-0.27-0.662-0.821-1.996-1.101-2.659-1.138 0.261-2.248 0.551-3.331 0.858 3.745 4.421 2.334 15.599-1.558 21.962-1.25 5.84 0.607 11.727-0.634 17.539-0.299 1.791-0.41 3.62-0.485 5.458 3.899 7.869 1.234 6.986 0.289 12.427 0.783 4.674 3.881 8.882 3.358 13.789-1.761 16.451 2.308 26.666-1.642 34.911-1.922 9.466-2.737 3.839-3.097 21.365-1.25 1.941-2.668 3.834-4.739 4.954-1.692 6.468-2.31 8.299-4.236 9.693-1.819 4.954-2.258 10.206-2.165 15.45-1.007 0.131-1.996 0.271-2.957 0.429 1.026 7.436 0.579 14.974-0.065 22.428-0.392 4.357 1.213 9.413-1.838 13.117-0.429 4.301 0.56 8.527 1.371 12.725-1.12-0.131-2.22-0.233-3.284-0.317-0.345 2.09-0.7 4.208-1.082 6.316 0.569 1.53 0.793 3.135-0.159 4.599 0.541 5.868-1.698 11.606-0.607 17.437-2.342 2.426-1.026 5.971-0.802 8.919-0.345 0.354-1.036 1.063-1.381 1.418 9e-3 6.484-1.838 12.772-3.807 18.901 0.662 3.76-1.008 7.398-1.586 11.083 1.054 3.191 1.297 6.577 2.165 9.833-0.308 0.345-0.924 1.026-1.232 1.371 0.382 1.232 0.774 2.472 1.213 3.75-0.635 1.828-1.399 3.639-1.726 5.579 1.633 2.426 3.443 4.758 4.721 7.436-0.383 0.513-1.129 1.53-1.502 2.034-0.588 0.168-1.754 0.513-2.332 0.681 0.336 2.575 0.886 5.215 0.149 7.809 0.97 1.064 1.95 2.155 2.939 3.275-0.41 3.135-0.644 6.297-1.166 9.423 3.865 14.885 0.589 11.278 1.801 17.829 0.317 2.892 1.39 5.663 1.782 8.564-0.793 1.269-1.829 2.351-2.78 3.499 0.401 5.084 3.247 10.085 1.586 15.244 0.495 3.965 1.996 7.995 0.616 11.979-2.756 7.754 3.817 32.047 4.693 43.065 0.224 2.566 0.177 5.327 1.81 7.52 3.051 4.319 1.95 10.178 5.084 14.479 2.015 2.239 0.523 5.15 0.364 7.771 1.269 7.837 6.055 14.629 7.855 22.326-0.064 7.954 2.789 13.631 7.1 29.136 2.416 2.435 6.717 4.926 5.374 8.984 3.582 4.273 5.57 9.637 9.628 13.547 2.986 2.808 3.648 7.258 6.913 9.861 3.881 3.312 6.643 7.995 11.494 10.113 3.06 1.259 3.452 5.635 1.707 8.154 0.336 0.215 1.008 0.634 1.343 0.849 0.177 1.269 0.373 2.566 0.607 3.89 0.466 0.243 1.399 0.737 1.875 0.989 0.233 0.914 0.485 1.857 0.774 2.827-2.099 3.9 1.269 7.594 1.959 11.391 1.228 7.05 14.566 9.866 9.106 19.76 0.569 1.67 1.138 3.331 1.745 5.057-235.43 5.773-31.305 7.804-268.02 0.065-0.942-13.652-7.308-28.133-7.65-29.136-0.718-2.659-3.555-3.48-5.952-3.704-3.237-0.485-6.848 2.174-9.469-0.737-1.231 1.045-2.463 2.071-3.676 3.125-3.247-4.347-4.879-9.619-7.855-14.134-2.286-3.237 0.121-7.184-0.914-10.682-0.886-3.666-1.39-7.454-3.032-10.878-0.625-0.056-1.857-0.159-2.482-0.215-0.196-3.918-3.956-6.615-3.209-10.673 0.662-7.081-2.463-13.649-3.144-20.553 0.382-4.795 0.765-9.591 0.588-14.396-1.241-0.42-2.435-0.802-3.62-1.176 0-0.812 9e-3 -2.426 9e-3 -3.237 0.513-0.784 1.045-1.539 1.605-2.267-2.127-7.053 0.457-14.377 3.359-20.786-2.771-2.109-2.603-5.756-3.312-8.798 0.103-0.411 0.317-1.231 0.429-1.642-1.605-4.581 1.754-8.779 2.827-13.08 1.06-2.731 8.3-27.586 6.428-32.093-2.248-7.613-0.7-15.804-3.004-23.436-2.034-5.495 0.373-11.102 2.416-16.177-1.549-4.889 0.849-9.759 0.336-14.675-0.522-6.838-0.084-13.696-0.606-20.516-3.424-4.525-1.866-10.468-0.868-15.543 2.239-5.113 0.513-10.776 1.633-16.084 1.651-5.896-1.353-11.839-0.215-17.829 0.532-0.42 1.605-1.269 2.136-1.689-1.81-1.726-4.236-2.305-6.531-2.967-1.017-1.94-1.791-4.161-3.853-5.196-0.099-7.169 3.385-8.973-2.771-15.366 0.177-2.062 0.662-4.273-0.896-5.924-0.084-2.239-0.103-4.46-0.121-6.671 0.299-0.438 0.886-1.315 1.185-1.745-0.037-2.398-9e-3 -4.777-0.037-7.146-0.457-0.224-1.381-0.662-1.838-0.886-0.69-2.547-2.388-4.581-3.499-6.904-0.068-1 1.942-12.803 0.252-18.528-1.558-0.653-4.432-0.047-4.618-2.286-0.401-3.891-2.808-7.109-3.368-10.934-1.062-6.517-3.924-3.771-1.81-14.964-1.67-1.456-2.444-3.387-2.08-5.56-0.728-0.961-1.465-1.903-2.164-2.818-1.474-0.774-3.629-0.924-4.18-2.715-0.989-15.828-1.795-19.935-2.062-20.935-0.793-2.267 0.177-4.683-0.411-6.922-2.239-1.287-4.907-1.857-6.633-3.89-0.961-0.308-1.912-0.588-2.836-0.849-0.439-1.008-0.868-1.996-1.269-2.976 0.168-1.959-0.214-3.853-0.998-5.616 1.166-0.364 2.36-0.7 3.573-1.026 0.019-0.644 0.075-1.95 0.093-2.594-1.437-1.437-2.845-2.883-4.245-4.31h-2.482c-1.502-2.248-3.704-3.806-6.074-4.991-0.41-2.454-0.28-4.935-0.56-7.37-1.054-1.707-2.407-3.172-3.666-4.683 0.047-0.55 0.149-1.661 0.196-2.211 1.343-0.597 2.724-1.166 4.105-1.717 0.028-2.873 0.28-5.738 0.55-8.574-0.271-0.252-0.821-0.765-1.092-1.017 1.306-0.485 2.631-0.97 3.984-1.437-1.017-1.213-2.034-2.398-3.023-3.583 0.159-0.653 0.485-1.959 0.644-2.612-0.989-0.513-1.95-0.998-2.892-1.474-0.168-0.42-0.504-1.26-0.681-1.679-2.323-0.728-4.814-1.511-6.297-3.564 0.243-1.623 2.164-3.452 0.756-4.963-1.913-2.155-4.749-3.405-6.13-6.008-5.652-9.575 0.01 1.429-7.128-17.232-1.704-6.096 0.93-6.056-6.064-14.227-1.306-0.429-2.594-0.868-3.844-1.278-0.084-2.192-0.158-4.385-0.345-6.549-1.912-0.896-3.9-1.605-5.934-2.052-0.56-1.642-2.136-3.489-0.97-5.187 1.045-2.23 3.489-4.292 2.575-6.979-0.14-2.22-1.017-4.506-3.582-4.45-0.952-0.597-1.875-1.166-2.79-1.717-4.705-7.026-4.045-3.947-3.629-12.977-0.718-0.084-2.155-0.261-2.874-0.345-0.308-1.987 0.28-3.89 0.709-5.794 0.28-2.211-2.855-3.713-1.745-5.952 0.308-0.625 0.914-1.885 1.222-2.51-1.726-3.489-4.357-6.866-8.611-6.913-5.766-21.116 5.406-3.419-6.782-27.578 0.578-0.345 1.735-1.036 2.314-1.381-0.037-1.054-0.056-2.09-0.056-3.116-2.5-3.75-2.025-8.518-4.077-12.445 0.075-1.801 0.168-3.592 0.28-5.365-3.293-2.845-7.342-4.814-9.833-8.499-2.37 0.448-4.758 0.756-7.146 0.83-1.173-3.539 1.496-11.5 3.844-14.946-0.084-0.588-0.243-1.773-0.327-2.37-1.073-0.28-2.118-0.55-3.153-0.802-1.838-3.377-3.172-6.988-4.404-10.598-0.7 0.037-2.09 0.121-2.78 0.159-0.709-0.802-1.418-1.567-2.127-2.295-1.017 0.616-1.633 1.651-2.286 2.612-4.254 2.79-8.938 5.84-14.255 5.392-3.834-0.504-7.818-0.55-11.373-2.192-2.612-1.278-5.756-0.588-8.266-1.959-1.866-2.267-2.08-5.775-4.711-7.38-2.099-0.606-4.329-0.41-6.409-0.896-2.538-0.597-1.623-3.862-3.079-5.411-2.351-0.578-4.786-0.411-7.156-0.494-0.354 0.485-1.054 1.455-1.409 1.94-2.416 0.149-4.702-0.578-6.988-1.166-11.546 2.502-9.632 2.924-13.948 5.579-11.006 0.345-6.349-0.094-15.823-3.75-0.784 0.998-1.511 2.025-2.248 3.051-0.392-0.298-1.166-0.886-1.549-1.185-5.62 1.279-5.425 0.542-8.341-4.46-2.398 0.084-4.777 0.196-7.137 0.532-2.808 4.637-2.566 11.065-7.417 14.367-1.633 1.39-3.648-0.345-5.495 0-3.844 0.504-7.622-0.532-10.878-2.519-0.653 0.69-1.297 1.399-1.922 2.118-0.224-0.597-0.681-1.782-0.905-2.379-4.264 1.418-8.714 2.071-12.996 3.415-5.794 0.149-10.925-3.778-16.691-3.723-0.896 2.025-1.287 4.217-1.819 6.363-0.345 0.271-1.036 0.802-1.381 1.064-0.802 1.213-1.633 2.407-2.463 3.61-13.597 1.19-13.52 3.146-18.631 2.239-6.391-1.064-12.585 1.455-18.892 1.987-2.985-1.082-5.728-2.78-7.305-5.607-2.584 2.118-6.045 5.122-9.488 2.948-0.989 0.187-1.959 0.392-2.911 0.616-1.726 1.231-3.526 2.351-5.215 3.62-3.06 0.765-6.409 1.11-9.152-0.718-3.079-2.174-6.577 0.457-9.749 1.026-0.924 3.573-4.432 5.094-7.268 6.904-1.353 0.998-2.892-0.327-4.254-0.597-1.241-2.957-4.823-1.782-7.296-2.388-3.769 1.623-7.883 2.276-11.96 1.978-2.743-0.299-4.786 1.959-7.305 2.594-2.687-1.511-5.467-2.873-8.49-3.508-14.438-10.915-17.24-2.025-23.66 0.392-0.243 0.513-0.746 1.549-0.998 2.062-1.427-0.42-2.845-0.905-4.273-1.148-1.549 0.578-1.502 2.491-2.062 3.769-0.438-0.411-1.325-1.222-1.763-1.633-0.467 0.289-1.418 0.868-1.894 1.166-3.405-0.858-6.717-2.062-10.16-2.706-0.373 0.289-1.129 0.877-1.502 1.176-2.603-1.017-5.336-2.025-6.904-4.478-1.857 2.528-4.329 4.46-6.698 6.465-3.004-0.476-5.878-1.371-8.574-2.752-2.323-1.25-5.001-0.588-7.436-1.166-1.642-0.858-2.351-2.687-3.368-4.077-1.502-2.902-5.075-3.172-7.669-4.599-0.112 0.55-0.336 1.642-0.448 2.192-0.84-0.7-1.679-1.437-2.463-2.127-3.918 0.504-7.865 0.588-11.792 0.327-2.901-0.168-5.365 3.032-8.266 1.53-2.444-1.036-5.103-0.299-7.641-0.7-1.064 0.131-2.099 0.308-3.135 0.476-0.513-0.951-1.017-1.884-1.502-2.808-4.152 1.101-8.322 2.202-12.604 2.566-7.354 3.466-15.574 6.572-19.107-1.073-3.76 0.336-7.221 2.584-8.369 6.297-2.099-1.717-4.124-3.62-5.057-6.223-1.157 0.205-2.332 0.429-3.452 0.737-1.325-0.308-2.724-0.308-3.918-0.896-1.325-1.474-1.241-3.638-1.959-5.374-1.754-0.709-3.583-0.243-5.318 0.177-2.146-0.821-4.357-0.504-6.372 0.495-3.834-1.586-7.52 0.886-11.41 0.401-3.741 0.252-7.38-1.465-11.083-0.606-3.834 1.073-7.492-1.054-11.205-1.698-1.95-2.22-4.142-4.208-6.046-6.447-2.351-0.467-4.711-0.83-7.062-1.166-0.457 0.364-1.371 1.073-1.819 1.427-1.754-0.784-3.471-1.577-5.178-2.398-2.174 1.409-4.459 2.874-7.053 3.312-2.164-0.243-4.254-0.858-6.391-1.11-0.849 2.584-2.351 4.973-5.439 4.655-1.969-1.213-4.124-2.052-6.316-2.715-0.364-0.429-1.073-1.287-1.437-1.726-1.138 1.157-2.071 2.603-3.527 3.396-3.387-0.289-6.307-2.192-8.238-4.907 0.233-0.709 0.69-2.127 0.924-2.846-0.588 0.327-1.763 0.961-2.351 1.287-3.34-1.064-5.327-4.45-8.788-5.159-5.234 3.209-12.492 2.435-16.532-2.323-2.071-0.392-4.413-0.476-5.514-2.594-3.414 1.045-6.017 3.443-7.24 6.811-1.903-0.541-3.06-1.912-3.638-3.723-6.251-1.157-9.945-7.184-16.009-8.751-1.642 1.026-3.256 2.109-4.73 3.368-1.12 0.093-2.239 0.196-3.34 0.317-0.42 0.961-0.84 1.94-1.241 2.939-2.332-1.885-4.711-3.75-6.559-6.12-0.97-0.215-1.931-0.411-2.883-0.588-0.187-0.644-0.569-1.913-0.756-2.547-1.717 0.271-3.293 0.952-4.674 1.987-2.211-1.082-4.609-1.679-6.922-2.398-4.404-2.062-4.366-8.051-8.751-10.178-0.364 0.522-1.082 1.558-1.437 2.071-0.644 0-1.931-9e-3 -2.575-9e-3 -0.093 0.737-0.299 2.202-0.392 2.939-7.987-0.678-4.013 1.394-15.338 0.625-0.625-1.567-1.259-3.116-1.885-4.656-2.846-0.326-5.682-0.597-8.508-0.886-1.138-2.528-3.284-4.236-5.859-5.103 0.065-0.7 0.205-2.109 0.271-2.808-1.894-1.791-4.114-3.807-6.839-2.342-4.058 0.187-6.885 3.312-10.71 4.04 0.084 0.597 0.177 1.213 0.28 1.847-2.323-0.401-4.515-1.409-6.848-1.614-2.444 0.569-4.851 1.334-7.156 2.342-0.728 3.079-1.707 6.139-4.152 8.331-1.276 5.955-2.374 2.156-6.344 12.464-1.026-0.737-2.043-1.455-3.041-2.165-0.914 0.737-1.801 1.511-2.678 2.295 1.204 2.426 2.435 4.935 2.491 7.715-1.95 1.278-3.806 2.706-5.439 4.366-2.155 0.028-4.292-0.131-6.325-0.812-3.461 2.192-5.906 5.756-7.016 9.684-1.885 6.092-7.688 9.703-10.57 15.198-1.745 0.616-3.517 1.148-5.271 1.745-1.306 4.198-4.17 7.669-5.71 11.802-5.812 2.202-11.074 7.146-12.287 13.416-0.588 1.791-2.566 2.407-4.002 3.349-0.588 1.838-0.84 3.816-1.726 5.57-14.982 18.777-6.797 12.597-15.058 19.181-0.877 1.857-2.435 3.219-4.002 4.497-0.728 2.37-1.81 5.038-4.441 5.784-10.695 2.573-5.023 5.46-13.509 9.339-0.681 1.427-1.325 2.874-1.95 4.338-10.13 4.618-6.098 8.411-14.451 13.518-6.008 3.769-8.966 10.468-12.987 16.01-11.955 10.297-7.673 12.344-15.972 15.683-1.278 0.97-2.612 1.875-3.965 2.762-3.116 1.745-4.189 6.148-8.182 6.428-6.96 5.025-4.649 11.434-13.864 10.906-4.935 10.678-1.744 3.585-8.574 11.625-1.838 2.351-5.224 2.193-7.771 3.377 0 0.616 9e-3 1.847 9e-3 2.463-1.922 3.051-3.592 6.279-5.906 9.078-1.232-1.166-2.174-2.715-3.741-3.396-2.556 0.578-3.573 3.387-5.831 4.506-0.299-1.325-0.569-2.622-0.821-3.918-0.952 0.327-1.894 0.681-2.836 1.054-0.345 4.889-3.228 8.975-4.655 13.556-3.909-2.948-9.441-1.838-12.968-5.365-0.672 0.224-2.006 0.662-2.668 0.886-0.616 3.172-1.026 6.381-1.913 9.507-3.405 4.478-6.829 8.947-10.934 12.828-1.381 0.149-2.762 0.289-4.124 0.476-1.969 3.443-5.113 6.008-9.031 6.866-2.113 3.434-6.726 2.938-4.301 26.412-0.606-0.121-1.829-0.354-2.435-0.476-0.215 1.94-0.448 3.9-0.709 5.868-1.941 0.131-3.89-0.047-5.728-0.681-2.463 0.868-5.532 0.858-7.38 2.892 0.756 2.295 1.95 4.711 0.98 7.165-1.53 4.133-1.427 8.583-2.174 12.884 1.176 3.377 3.312 6.372 4.198 9.871 0.317 2.202-2.734 3.778-1.595 6.017 0.625 2.006 0.793 4.105 0.821 6.223-1.987 0.905-3.853 2.622-6.167 2.416-3.788-0.438-7.641-0.616-11.298-1.754-0.588 0.69-1.166 1.399-1.745 2.127-0.634 5.01 2.23 9.787 0.886 14.778-0.597 2.248 0.233 4.45 0.84 6.615 1.235 3.158-4.039 12.047-5.252 14.955-0.97 4.861-1.194 9.861-1.539 14.806 0.177 3.032-1.689 5.588-2.556 8.387-0.597 2.23-2.827 3.312-4.152 5.057-3.106 14.541-1.521 9.371-1.502 16.448 0.271 4.777-2.062 9.283-1.521 14.088 0.566 5.288-6.152 16.353-4.432 25.33-0.625 0.737-1.241 1.502-1.847 2.286-0.187 6.027 1.176 12.147-0.019 18.099-1.008 0.69-2.006 1.418-2.995 2.155-0.69 6.353-2.566 12.585-1.903 19.042-1.231 4.954 0.952 10.197-0.886 15.123-2.22 4.767-1.493 10.216-3.592 15.039 0.289 3.694-0.653 7.547 1.054 11.046-2.687 2.827-1.287 6.969-2.379 10.402-1.661 5.682-2.09 11.783-0.746 17.577 1.45 35.513-1.295 59.169 0.849 69.038 0.038 1-5.591 29.433-5.029 33.67-0.317 0.364-0.952 1.101-1.278 1.465-0.149 3.405 2.043 7.109-0.299 10.178 5.01 10.289-0.166 12.662 2.435 17.549 4.348 9.385 8.219 19.153 9.012 29.584-0.186 4.856 4.209 3.873 3.788 14.694-91.193 6.941-182.36 5.722-273.51 0.047 0.075-0.448 0.224-1.344 0.299-1.792 1.381-0.616 2.976-0.914 4.058-2.006 3.237-2.939 0.019-8.238 3.89-10.832 1.819-3.405 3.881-6.764 4.441-10.645-3.349 0.728-6.792 0.662-10.169 1.091-2.911 1.194-5.812 2.435-8.844 3.312 4.553-5.747 7.473-12.492 10.822-18.948-0.905-0.97-1.838-1.885-2.622-2.911 0.513-1.222 1.399-2.202 2.183-3.209-0.159-3.545 1.614-6.624 2.92-9.768-1.625-1.768-8.868-9.763-11.951-10.925-6.395-11.508-16.466-12.645-21.346-15.226 0.438-1.931 0.877-3.825 1.409-5.7-1.418-0.578-2.817-1.176-4.217-1.726 1.996-0.886 3.918-1.922 5.616-3.284-0.765-1.147-1.549-2.248-2.211-3.415 1.269-2.118 3.909-1.054 5.906-1.325-0.996-3.125-9.092-11.581-7.949-16.448-0.093-1.801 1.204-3.097 2.36-4.254-0.187-1.717-0.55-3.377-1.064-4.982 1.129-3.023 1.549-6.484 0.047-9.441 0.41-5.607-2.006-11.13-0.7-16.681 0.868-2.603 3.536-3.956 5.262-5.924 3.527-3.097 3.722-8.107 5.663-12.11 3.228-6.727 6.969-13.388 8.303-20.805 0.97-2.482 3.349-4.049 4.562-6.381 1.287-2.398 2.603-4.786 4.068-7.063 3.854-6.135 6.474-21.101 6.811-22.102 1.222-4.627 3.928-8.676 5.178-13.285 4.002-9.19 4.31-19.555 8.928-28.53 2.734-4.637-1.297-9.87 1.39-14.517 4.068-8.089 4.711-17.493 9.367-25.311 1.101-2.687 1.455-5.626 2.892-8.163 2.258-4.254 2.855-9.087 4.432-13.584 1.577-5.15 4.59-9.871 5.113-15.31 0.14-6.689 3.89-12.52 5.99-18.678 0.849-5.122 2.985-9.88 4.543-14.797 1.222-3.526 0.149-7.473 1.847-10.869 3.013-6.745 3.89-14.153 6.456-21.038-3.329-5.478 5.536-11.816 7.967-16.812 0.55-3.853-0.289-7.837 0.784-11.606 1.493-4.32 5.234-7.799 5.392-12.548 0.345-3.946 1.913-7.613 3.293-11.27 2.025-4.301 0.42-9.161 1.483-13.658 0.952-3.657 1.064-7.464 0.998-11.205-0.868-0.457-1.735-0.886-2.603-1.297 0.224-4.403 3.153-7.837 5.915-10.971-0.821-3.844 0.765-7.771-0.998-11.457 1.931-4.599 6.503-8.145 6.671-13.49-0.075-3.452-0.065-6.904 0.037-10.337 2.202-3.555 7.715-3.564 8.714-8.089 0.728-4.049 2.985-7.669 3.097-11.82 0.345-5.178 2.668-9.889 6.018-13.77-1.577-6.241-0.896-12.641-0.7-18.958-0.625-7.314-1.231-14.797 0.55-21.999-1.129-2.898-2.291-2.743 5.794-11.783 0.261-1.633 0.513-3.265 0.774-4.87-1.306 0.271-2.594 0.634-3.881 0.952-0.243-6.615 5.831-10.608 9.861-14.89 3.778-3.722 2.892-10.001-0.644-13.556 2.472-2.174 2.939-5.542 4.627-8.219l2.276-0.448c1.819-2.482 5.495-3.545 5.794-6.988-1.511 0.401-2.985 0.896-4.478 1.343 1.726-0.979 3.629-1.726 5.141-3.032 1.297-2.146 2.566-4.319 3.75-6.531 0.233-2.547-0.448-5.131-0.112-7.697 1.511 0.196 3.293 1.726 4.674 0.466 0.905-2.174 1.502-4.45 2.22-6.68 2.342-0.448 4.665 0.028 6.941 0.634 1.334-2.025-0.634-4.338-1.297-6.279-2.244-3.643 4.695-7.511 1.847-16.103-1.101-3.452 0.616-7.016 2.407-9.899-0.858-3.405-2.295-6.727-2.043-10.309 2.454-1.334 4.851-2.771 7.268-4.18 0.215-0.532 0.644-1.605 0.849-2.136-1.941-0.569-3.946-0.914-5.868-1.493-1.698-1.446-1.465-3.946-1.745-5.924-1.969-0.252-4.254 0.093-5.859-1.297-2.864-2.388-4.142-6.195-4.021-9.833 0.159-2.78-2.444-4.441-3.657-6.652 0.709-4.674 3.079-9.115 6.559-12.362 0.854-5.175-1.04-18.82 11.615-16.578 1.427-0.317 2.864-0.644 4.301-0.933-5.514-3.769-12.1-5.113-18.416-6.848-7.031-1.481-6.072-18.611-7.286-21.616-0.858-2.538-1.577-5.103-2.127-7.716 0.438-1.101 1.558-2.127 0.933-3.368-2.304-8.247-0.933-17.558-5.504-25.143-1.536-12.718 5.813-20.944 6.531-25.385-1.166 0.597-2.295 1.278-3.433 1.922-0.243-0.168-0.718-0.504-0.961-0.672-3.853 1.53-7.949 5.197-12.175 2.556-0.662-2.538-2.118-4.627-4.049-6.335-0.634-3.284-0.037-6.764-0.756-10.076-1.978-0.457-3.974-0.84-5.962-1.194-0.205-3.881 9e-3 -7.799 1.334-11.475-0.047-1.39-9e-3 -2.771 0.131-4.133-1.614-1.381-3.471-2.528-4.749-4.245-1.064-1.978-0.606-4.46-1.931-6.307-0.97-1.819-2.929-3.713-1.829-5.915 2.024-4.077 1.073-8.667 1.726-12.996 0.662-4.124 2.258-8.788-0.261-12.576-1.399-2.015-0.271-4.487-0.196-6.699-1.036-0.756-2.23-1.315-3.004-2.342-0.532-4.105 0.093-8.285-0.625-12.362-0.933-4.198 0.952-8.368 0.485-12.604-1.232-0.364-2.463-0.718-3.685-1.045-0.327-3.172-0.588-6.353-1.129-9.497-4.758-1.194-2.734-6.829-1.819-10.132-1.735-4.264-0.317-9.357-3.583-13.015 0.121-4.777 2.295-9.6 0.737-14.302-0.98-0.485-1.959-0.97-2.92-1.446 0.522-3.275 1.381-6.484 2.211-9.684 1.318-4.367-2.917-17.079-1.325-22.167 0.774-2.836 1.53-5.691 1.941-8.602-1.801-1.763-4.59-1.082-6.428-2.603 0.942-3.75 2.976-7.249 2.929-11.214-0.056-4.543 1.446-9.087 0.504-13.593-0.634-3.666-3.648-6.848-2.622-10.729 0.998-5.56 9e-3 -11.223-1.008-16.709-1.433-6.711 5.907-23.393 1.12-32.495-2.901 2.37-5.616 4.945-8.257 7.594 0.28 0.625 0.84 1.875 1.12 2.51-1.95 2.64-5.7 4.553-5.308 8.322-0.728 0.625-1.446 1.26-2.164 1.903 0.784 1.185 1.577 2.379 2.388 3.573-0.084 5.113-3.722 8.863-6.437 12.819-1.81 2.603-5.066 3.415-7.641 5.019 0.084 4.879-2.192 9.441-3.041 14.209-0.429 0.252-1.297 0.756-1.726 1.008 0 10.841-5.889 13.382-7.417 15.048-0.886 1.558-0.718 3.461-1.054 5.197 0.756 0.112 2.258 0.336 3.013 0.448 0.746 1.129 1.502 2.267 2.258 3.424-0.718 0.233-2.136 0.69-2.855 0.924-0.14 1.698-0.289 3.396-0.438 5.103 0.821 0.522 1.651 1.064 2.482 1.614-0.961 0.989-1.913 2.006-2.845 3.041-1.259-0.233-2.519-0.438-3.778-0.616 1.399 2.463 3.75 4.03 6.083 5.514-0.737 0.634-1.474 1.278-2.202 1.931 1.166 3.359 2.118 6.857 4.385 9.693-1.297 0.961-2.612 1.894-3.918 2.855 0.728 0.476 1.455 0.952 2.192 1.446-0.504 0.215-1.511 0.644-2.015 0.858 1.717 1.148 3.415 2.36 4.926 3.788-0.289 4.963 5.57 6.325 6.092 10.999 1.782 2.062 3.881 3.806 6.157 5.29-2.967 0.681-6.363 0.718-8.397-1.94-1.689 0.438-3.918 0.187-4.795 2.034-1.773-0.028-3.545-0.037-5.308 0 0.177-0.42 0.541-1.26 0.728-1.679-0.961-2.09-2.239-3.984-3.788-5.654-1.586 0.364-3.62-0.047-4.59 1.633 0.728 0.093 2.183 0.28 2.911 0.373 0.476 1.147 0.924 2.323 1.362 3.508-0.69 0.28-2.08 0.821-2.771 1.101 0.299 1.689 0.616 3.387 0.924 5.103-0.541 0.42-1.633 1.259-2.174 1.67 1.25 2.976 2.342 6.018 2.668 9.264 1.549 0.523 3.163 0.802 4.805 0.821 0.019 1.147 0.028 2.314 0.056 3.489 0.429 0.355 1.297 1.054 1.726 1.409 0.327 2.939-0.019 5.878-0.896 8.704 0.597 0.336 1.801 1.017 2.398 1.362-1.008 1.922-1.866 3.909-2.612 5.952-0.718 0.569-1.427 1.148-2.127 1.745 0.159 0.681 0.476 2.043 0.634 2.724-1.11 2.967-1.735 6.419-5.113 7.641 0.784 0.14 2.36 0.41 3.144 0.55 0.215 0.989 0.429 1.997 0.653 3.013 1.549 0.504 3.097 1.017 4.683 1.455-3.265-0.858-3.713 3.004-4.655 5.159-1.017 4.077-4.907 6.185-8.079 8.434 3.275 2.37 7.762 2.864 10.486 5.962 0.802 2.099-1.567 2.901-3.041 3.611-3.359 2.015-7.165 0.159-10.636-0.532 2.678-2.034 5.654 0.513 8.602 0.112-2.528-3.629-7.268-4.702-11.438-4.441-2.435 0.224-3.788 2.566-5.402 4.114 1.222 2.939 3.275 5.374 5.439 7.678 1.381 0.7 2.762 1.437 4.105 2.258-2.995 0.019-5.85-0.961-8.62-1.959 9e-3 1.502 0.168 3.023-0.047 4.553-1.53 1.726-3.601 2.836-5.42 4.236 1.092 0.578 2.183 1.157 3.284 1.754-0.448 2.575-0.662 5.206-0.345 7.827-0.989 1.595-0.989 3.443-0.047 5.103-1.203 2.304-3.097 4.404-3.069 7.165-2.444 2.099-3.928 6.167-7.529 6.26 1.614-2.043 4.711-4.394 3.928-7.212-2.286-0.569-4.805 1.343-6.391 3.088 0.467 9.462-3.273 4.105-8.583 11.979-4.478 2.407-9.236 4.357-13.229 7.557-3.732 2.939-8.835 2.37-13.071 0.989-1.371-2.006-2.65-4.114-2.939-6.568-1.222-1.455-2.491-2.855-3.778-4.226-2.36 0.821-4.609-0.271-6.587-1.465-1.614-1.064-3.62-0.569-5.43-0.765-2.23 2.967-1.325 6.755-1.67 10.197-2.472-2.015-2.528-5.15-2.64-8.051-2.323-2.286-3.405-5.439-5.411-7.958 0.252-0.485 0.756-1.446 1.008-1.931-0.093-3.666-0.914-7.296-0.821-10.971-1.857-2.51-1.829-7.044-5.626-7.38 2.183 3.368 1.997 7.361 0.355 10.925-2.845-3.694-5.318-8.238-9.936-9.936 0.737 1.903 1.838 3.648 3.041 5.309-0.896 0.961-1.698 2.631-3.312 1.987-1.036-0.812-1.67-2.202-2.939-2.64-1.726-0.112-3.452 0-5.169 0.047 0.728-2.696 1.446-5.383 2.164-8.061-11.228-10.725-9.022-2.911-10.402-11.69 2.351-2.174 3.9-4.982 5.495-7.706-0.355-0.532-1.045-1.614-1.399-2.146-0.718 0.037-2.155 0.112-2.873 0.159-1.026 2.109-1.857 4.292-2.603 6.531-3.321 0.084-7.296-1.614-7.342-5.448 1.595-0.812 3.144-1.717 4.553-2.818-0.131-0.728-0.383-2.174-0.513-2.901 2.985-6.238 2.619-3.14 0.233-12.259-1.745 2.398-2.799 5.411-5.355 7.118 0.103-1.689 0.476-3.331 1.157-4.861 0.317-4.105-0.121-8.201-0.401-12.278 0.351-6.231 3.874-15.915-3.611-18.64 0.429-0.653 0.849-1.297 1.287-1.922-0.43-4.128 5.364-19.843 2.762-28.315-0.653-0.355-1.969-1.054-2.631-1.409-0.84 1.194-1.67 2.416-2.5 3.638 1.026-2.734 4.068-5.775 1.502-8.564 0.196-3.405 0.998-6.708 2.519-9.749 2.911-6.111-1.241-13.621 2.528-19.359-0.149-1.222-0.578-2.342-1.418-3.228-0.028-0.588-0.093-1.754-0.121-2.342-0.522 0.047-1.558 0.131-2.08 0.177-0.56-2.118-1.362-4.189-1.679-6.344 1.754-2.771 3.853-5.336 6.335-7.482 1.866-1.353 1.437-3.974 2.594-5.756 0.914-1.297 2.052-2.407 3.107-3.564 2.398-2.081 2.202-5.532 3.125-8.313-0.401-0.41-1.204-1.232-1.605-1.642-0.28-2.351-0.709-4.749 0.196-7.006-2.37-2.295-5.915-4.329-5.159-8.173 2.818-4.114 4.404-8.919 7.268-12.996 1.866-2.435 1.073-5.728 1.567-8.555-1.978-2.547-6.027-4.599-5.029-8.369 1.166-3.116 2.519-6.157 3.508-9.329-0.355-1.586-0.718-3.191-1.782-4.469-0.149-4.506-0.14-9.087 0.924-13.49 3.396-2.472 3.639-7.053 5.822-10.402 0.765-3.984-0.756-7.566-2.92-10.785 1.624-11.914 3.88-12.201 12.725-34.463 0.833-2.149 4.911-22.176 9.171-28.035 1.913-2.183 3.629-4.534 5.103-7.025 0.14-2.416 0.438-4.823 1.064-7.165 5.364-1.894 5.924-8.546 10.011-11.942 1.259-5.29 0.886-10.785 2.136-16.047 1.502-0.98 2.967-2.006 4.413-3.06 0.317-3.769 2.734-6.82 4.264-10.16 1.204-2.538 5.308-2.08 6.111-4.963 0.55-1.502 0.774-3.079 1.101-4.618 5.026-4.796 1.13-5.127 12.287-9.693 4.032-11.289 5.359-8.835 13.434-13.49 4.124-2.071 5.84-7.1 10.365-8.611 4.562-2.444 10.748-2.081 14.022-6.587 11.205-14.379 28.398-17.738 29.705-18.706 5.299-3.89 12.408-4.431 17.437-8.77 3.2-2.864 7.566-0.065 11.195-0.709 1.073-1.726 1.502-4.068 3.527-5.001 4.161-2.286 9.068-2.202 13.574-3.293 3.471-1.054 4.105-5.29 7.156-6.866 9.925-6.478 4.018-5.902 21.999-10.039 1.791-1.082 2.948-3.209 5.159-3.555 3.517-0.746 6.54-2.687 9.162-5.066 3.937-3.443 9.143-4.842 13.052-8.303 4.133-3.666 9.311-5.924 14.563-7.492 0.728-1.586 1.064-3.555 2.603-4.609 1.782-0.914 4.133-0.373 5.747-1.549 1.203-3.461 1.166-8.014 4.814-10.011 2.845-1.232 4.609-3.76 6.027-6.391-0.439-1.829-0.616-3.704-0.541-5.579 0.569-0.243 1.717-0.728 2.295-0.97-0.112-1.222-0.205-2.444-0.289-3.648 1.885-0.075 3.797 0.047 5.672-0.252 1.353-1.399 2.164-3.247 3.592-4.581 2.584-1.315 5.85-1.147 7.995-3.321 5.906-5.682 13.658-10.897 15.002-19.62-0.028-3.228 3.629-1.941 5.626-2.584 3.097-2.155 3.489-6.157 4.749-9.404 0.765-2.51 3.545-3.797 4.058-6.409 0.905-3.741 1.026-7.921 3.722-10.962 3.844-1.315 7.827 0.28 11.634 0.952 2.407-1.325 2.108-4.982 3.265-7.333 0.42-0.187 1.259-0.569 1.679-0.756 7.895-13.701 6.974-8.819 10.794-8.732 2.164-0.336 4.245-1.633 6.493-1.12 0.457 1.455 0.709 2.976 1.017 4.487 2.967-0.075 5.047-1.987 6.885-4.077 1.465-1.231 2.687 0.672 3.769 1.437 1.577-0.84 3.079-1.81 4.543-2.836 0.065-3.9 0.084-7.79 0.14-11.681 0.746-0.69 1.511-1.371 2.276-2.043 5.878 0.578 12.212-2.715 17.689 0.56 1.343 0.84 2.967 0.634 4.487 0.765 6.641-7.578 4.958-4.663 11.466-3.937 0.98-0.429 1.885-1.008 2.808-1.549 0.205-2.967-1.754-5.169-3.125-7.566 0.803-3.911 5.12 0.627 23.846-1.129 0.784 0.429 1.577 0.849 2.379 1.278 0.345-0.588 1.036-1.745 1.39-2.332-0.672-1.502-1.381-2.985-2.118-4.441-0.084-1.987-0.149-3.965-0.215-5.943 2.304-0.868 4.553 0.345 6.838 0.681 2.528 0.345 5.094 0.336 7.66 0.373 0.56-1.176 1.138-2.351 1.689-3.527 3.806-2.407 8.592-0.961 12.576-2.836 2.454-1.185 4.795-2.603 7.426-3.405 0.597-1.232 1.259-2.444 1.614-3.769-0.69-1.148-2.388-1.978-1.735-3.517 9.665-5.752 11.191-1.056 13.92 2.332 19.182-0.46 7.118-5.024 22.801-3.676 0.271-1.521 0.569-3.032 0.896-4.534 1.791-1.036 3.48-2.248 5.057-3.601 2.407 0.401 4.823 1.838 7.296 1.297 4.441-2.286 8.966-4.945 14.106-5.103 4.198-0.093 7.855-3.088 12.128-2.314 3.181 0.401 6.204-0.924 9.329-1.306 0.886-2.668 0.737-6.447 3.816-7.669 2.463-0.103 3.881 2.864 6.372 2.678 3.844-0.494 7.706 0.065 11.559-0.233 2.435 1.586 2.64 4.571 3.256 7.146 1.325-0.308 2.678-0.606 4.012-0.942 4.19-5.489 18.079-0.963 24.229 1.791 5.069-0.714 2.31-3.027 10.169-0.55 3.918-1.931 8.173-1.11 12.306-0.681 3.806-1.073 6.96-4.562 11.195-4.04 1.595 0.765 2.575 2.351 3.76 3.62 3.62 0 6.857-1.717 10.234-2.79 1.661 1.325 2.939 3.051 4.32 4.665 3.732-1.054 7.576-0.019 11.345-0.541 5.962-1.455 11.914 1.008 17.801 1.763 2.23-0.168 4.394-0.821 6.596-1.269 0.457 0.998 0.933 1.996 1.418 3.004 18.877 9.568 26.229-4.656 32.523 2.622 4.599 0.952 8.863 3.722 13.649 3.48 1.642-1.605 2.519-5.103 5.504-4.077 5.906 0.345 11.382 2.929 15.282 7.408 6.437 0.457 12.921-0.588 19.349 0.401 3.069 0.578 5.663-1.651 8.387-2.706 1.306 1.138 2.631 2.286 3.965 3.415 3.34 0.578 6.521 2.267 9.992 1.437 0.84 0.504 1.698 1.017 2.575 1.53 1.829-1.857 4.805-3.545 7.249-1.689 2.706 1.791 6.251 1.334 8.854 3.368 3.834 2.79 8.984 1.222 11.942-2.071 4.618 1.194 9.32 2.127 13.714 4.058 3.443-1.698 7.118 0.224 10.598 0.812 2.995-3.135 7.408-2.071 11.261-1.922 1.577-1.446 3.275-3.387 5.691-2.78 2.025-0.168 1.922 2.127 2.351 3.489 0.513 0.597 1.045 1.194 1.586 1.791 5.467 2.566 11.186-9e-3 16.737-0.774 1.521 1.054 3.023 2.155 4.515 3.284 4.058 0.205 8.117 0.886 12.194 0.466 3.079 1.707 6.195 3.349 9.367 4.907 1.39-0.065 2.799-0.056 4.208-0.252 4.516-5.771 2.924-9.731 14.965-2.388 4.226 0.159 9.264-0.849 12.548 2.547 3.984 0.037 7.967-9e-3 11.96 0.019 1.521 1.418 3.06 2.818 4.637 4.198 1.801-0.728 3.527-1.838 5.514-2.043 4.114 0.42 7.986 2.37 12.194 2.136 3.135-0.196 6.288-0.252 9.451-0.131 6.247 0.085 3.475-4.224 12.837 3.592 4.786-0.625 8.397 3.601 13.136 2.799 3.415-0.047 6.951-0.42 10.234 0.774 2.482 1.036 4.991-0.485 7.51-0.588 2.575-0.364 5.057 0.578 7.51 1.287 4.814 1.801 10.197 0.336 14.964 2.482 1.306-0.541 2.622-1.082 3.946-1.623 0.476-1.008 0.97-2.006 1.483-3.004 12.407 0.913 8.737 1.691 14.265 4.581 3.359 0.877 7.053-0.69 10.309 0.952 2.901 1.325 6.046 1.847 9.236 1.67 1.427-0.896 2.836-1.857 4.422-2.472 2.472-0.187 4.674 1.25 6.997 1.903 2.771 1.036 6.073-0.14 8.648 1.558 2.556 1.735 5.663 2.202 8.592 3.013 1.188-4.11 4.45-2.89 13.518 1.054 5.262 0.252 10.608 1.11 15.804-0.327 4.711-1.605 9.068 2.575 13.854 1.67 2.79-0.914 4.739-3.349 7.426-4.478 2.995-0.317 4.506 2.948 6.708 4.413 2.398 0.065 4.823-0.989 7.202-0.028 4.198 1.521 8.938-1.12 12.931 1.148 3.303 2.136 7.426 2.734 11.298 2.678 5.187-0.14 8.807-4.87 14.022-4.823 3.806 0.355 7.305 3.153 11.223 1.885 3.405-1.176 6.251 3.013 9.6 1.334 2.314-0.84 4.777-0.765 7.221-0.793 1.474 0.067 14.054-4.565 20.982-0.317 2.594 1.717 5.728 2.211 8.798 2.062 1.978-0.112 2.528-2.388 3.564-3.704 3.928-0.97 8.005-0.578 12.035-0.644 2.976-2.37 6.493-4.665 10.505-3.573 4.46 0.56 7.762-3.153 12.156-2.995 3.806-0.196 7.286-2.286 11.158-2.071 3.797 0.177 7.557 0.998 11.382 0.998 1.969-1.166 3.946-3.377 6.484-2.491 3.265 0.746 6.689 2.351 10.048 1.008 3.471-0.868 6.391-4.198 10.197-3.181 4.655 0.793 8.956 3.172 13.752 3.265 8.171-7.19 6.071-3.451 13.5-3.396 1.558-0.476 3.042-1.213 4.646-1.661 1.978 0.131 3.956 1.427 5.952 0.709 3.424-1.045 7.081-1.101 10.421-2.528 2.435-0.98 4.907 0.103 6.764 1.745 0.56-1.25 1.185-2.5 1.801-3.741 3.862-0.681 7.949 0.168 10.328 3.545 0.83 0.019 2.491 0.056 3.321 0.084 0.345-2.314 0.728-4.618 1.371-6.857 3.452 2.118 4.889 6.381 8.425 8.303 2.556-0.709 5.075-1.577 7.771-1.679 2.752-2.715 6.577-2.724 10.15-1.987 6.26 1.213 11.681-2.64 16.849-5.514 3.396 1.735 6.801 4.758 10.934 3.704 2.118-1.614 2.034-4.562 2.827-6.885 3.013 1.791 6.148 3.331 9.581 4.189 2.948-1.399 6.372-1.334 9.283 0.177 17.043-7.283 14.812 4.294 22.475-3.527 3.536 0.812 7.473 1.595 10.328-1.287 2.696 0.103 4.795 1.969 7.268 2.818 6.537 0.119 4.353-5.954 25.124-1.913 2.51 0.476 4.254-1.819 6.531-2.416 3.209 0.896 6.148 2.547 9.246 3.797 2.025-1.176 4.329-1.521 6.671-1.409 4.963 0.177 9.628-1.754 14.451-2.594 3.545-0.317 7.118 0.047 10.692-0.056 2.183-1.287 4.422-2.482 6.671-3.685 2.519 2.183 4.161 5.318 7.296 6.773 2.155-2.883 5.169-5.15 8.994-4.655 3.956-1.53 8.593-1.539 12.39 0.541 2.836 1.577 6.185 0.952 9.311 1.017 3.891-3.527 9.152-4.021 14.144-4.627 3.013-0.364 5.29 2.883 8.369 1.987 3.088-0.989 6.307-1.586 9.553-0.774 7.106-5.98 5.446-4.536 15.813-2.864 3.405-2.248 6.288-5.131 9.096-8.061 1.679-1.801 4.301-0.625 6.447-0.961 1.558-0.877 2.92-2.118 4.562-2.892 3.135-1.157 6.885-0.401 9.721-2.416 1.941-2.211 2.025-5.85 4.889-7.333 1.605-1.241 3.527 0.233 5.271 0.429 1.409 0.532 2.538-0.97 3.769-1.483 0.252-2.071 0.14-4.394 1.595-6.083 1.791-2.174 3.937-4.068 5.439-6.484 2.192-3.592 6.848-4.236 9.563-7.296 1.287-1.185 1.754-2.911 2.407-4.478-0.793-1.81-1.446-3.648-1.95-5.532 9.439-8.758 20.062-8.535 24.751-20.609 1.763-4.945 5.187-9.096 8.984-12.651 2.491-2.36 2.22-7.034 5.878-8.257 2.407-1.325 5.187-1.39 7.883-1.521 2.734-3.097 4.068-6.988 4.889-10.971 0.606-3.088 4.954-3.032 5.878-5.896 0.319-5.85-2.378-5.077 1.633-13.593 2.155-0.438 4.338-0.821 6.559-1.064 2.659-2.883 5.028-6.055 6.372-9.777-0.979-1.446-2.034-2.827-3.172-4.105 0.224-1.287 0.653-2.519 1.315-3.657 7.212 0.56 14.405-1.157 20.814-4.338 3.349-2.416 1.623-7.193 4.086-10.169 0.783-1.689 2.873-1.409 4.413-1.847 0.382-0.308 1.166-0.924 1.549-1.222 1.424-13.971 4.199-8.837 10.272-10.412 1.773-1.287 3.583-2.64 4.982-4.376 1.278-2.538-0.14-6.111 2.575-7.949 3.685 0.28 2.647 2.461 5.971-2.659-0.718-1.166-1.381-2.332-2.015-3.517 3.368-1.204 7.314-4.581 10.794-1.847 2.304 1.53 4.674 3.125 7.613 2.948 0.317-4.711-2.482-8.928-2.025-13.64 3.107 1.325 6.148 4.021 9.777 2.752 1.586-1.502 1.521-3.788 1.81-5.803 2.64-1.913 3.9-4.982 5.887-7.473 2.108-1.25 5.141 0.802 7.025-1.213 2.379-2.006 2.622-5.336 4.114-7.911 5.682-6.402 7.259 1.428 14.498 0.345 2.528-1.586 5.122-3.769 5.271-7.006-0.112-2.771 3.433-3.228 3.881-5.747 1.166-3.816 2.958-7.38 4.991-10.794 2.342-0.159 4.581 0.56 6.736 1.474 0.224 0.494 0.672 1.493 0.896 1.987 13.154 5.055 13.99-4.972 25.609 5.187 4.469-0.308 8.368-3.219 11.867-5.859 3.275-1.25 6.755-1.829 10.207-2.444 2.995-0.728 5.252 2.752 8.35 1.773 2.874-0.756 5.756-1.493 8.788-1.325 1.269-3.415 1.726-7.072 3.135-10.449 3.573-1.642 6.792-4.077 9.404-7.034 1.689-0.914 3.489-1.698 5.085-2.845 0.653-1.754 0.261-3.741 0.457-5.588 8.928 4.465 6.418 3.264 10.682 1.427 0.392-1.773 0.345-4.31 2.417-5.047 5.803 3.517 12.725 4.935 19.47 4.823 3.181-1.651 5.626-4.217 8.135-6.717 2.314-2.174 4.917 0.289 7.128 1.287 3.386 0.802 6.745-0.868 10.113-1.231 3.648 1.511 5.803 6.335 10.207 5.588 1.586-0.047 3.228-0.084 4.879-0.065 1.334 1.138 2.426 3.237 4.525 2.706 7.632-1.176 14.097 4.767 21.71 3.657 1.045-1.894 2.109-3.769 3.256-5.616 1.801 1.623 3.769 3.069 5.84 4.366 2.5 0.047 4.991-0.401 7.436-1.036 3.424-0.112 7.38 2.929 10.393 0.261 5.103-3.956 11.167-7.006 17.726-7.342 2.993-0.327 5.568-2.174 7.425-4.488z"/>
</svg>